<svg xmlns="http://www.w3.org/2000/svg" viewBox="0 0 64 64" role="img" aria-labelledby="title">
    <title id="title">GeoPortal</title>
    <defs>
        <linearGradient id="bg" x1="10" y1="6" x2="54" y2="58" gradientUnits="userSpaceOnUse">
            <stop stop-color="#38bdf8"/>
            <stop offset="0.52" stop-color="#2563eb"/>
            <stop offset="1" stop-color="#17315f"/>
        </linearGradient>
        <linearGradient id="pin" x1="23" y1="15" x2="42" y2="45" gradientUnits="userSpaceOnUse">
            <stop stop-color="#ffffff"/>
            <stop offset="1" stop-color="#dbeafe"/>
        </linearGradient>
    </defs>

    <rect x="4" y="4" width="56" height="56" rx="14" fill="url(#bg)"/>
    <path d="M14 20.5 24 16l9 4.5 11-4.5 6 3v25l-6-3-11 4.5-9-4.5-10 4.5V20.5Z"
          fill="#ffffff" opacity="0.16"/>
    <path d="M24 16v25M33 20.5v25M44 16v25"
          fill="none" stroke="#ffffff" stroke-width="1.5" stroke-linecap="round" opacity="0.22"/>
    <path d="M18 36c7-9 14 6 22-3 3-3.5 5.5-4.6 8-4.2"
          fill="none" stroke="#a7f3d0" stroke-width="3" stroke-linecap="round"/>
    <circle cx="18" cy="36" r="2.7" fill="#22c55e"/>
    <circle cx="48" cy="28.8" r="2.7" fill="#f97316"/>

    <path d="M32 14.5c-7.2 0-13 5.8-13 13 0 9.2 13 22 13 22s13-12.8 13-22c0-7.2-5.8-13-13-13Z"
          fill="url(#pin)"/>
    <circle cx="32" cy="27.4" r="5.1" fill="#2563eb"/>
    <path d="M25.5 50.5h13"
          fill="none" stroke="#0f172a" stroke-width="2" stroke-linecap="round" opacity="0.24"/>
</svg>
